<svg width="28" height="28" viewBox="0 0 28 28" fill="none" xmlns="http://www.w3.org/2000/svg">
<circle cx="14" cy="14" r="14" fill="#C4C4C4" fill-opacity="0.5"/>
<path d="M12.5886 10.6888H10.4925C10.1432 10.6888 9.86002 10.972 9.86002 11.3213V18.6119C9.86002 18.9612 10.1432 19.2444 10.4925 19.2444H12.5886C12.9379 19.2444 13.2211 18.9612 13.2211 18.6119V11.3213C13.2211 10.972 12.9379 10.6888 12.5886 10.6888Z" fill="white"/>
<path d="M17.7831 10.6888H15.687C15.3377 10.6888 15.0545 10.972 15.0545 11.3213V18.6119C15.0545 18.9612 15.3377 19.2444 15.687 19.2444H17.7831C18.1324 19.2444 18.4156 18.9612 18.4156 18.6119V11.3213C18.4156 10.972 18.1324 10.6888 17.7831 10.6888Z" fill="white"/>
</svg>
