<svg width="20" height="20" viewBox="0 0 20 20" fill="none" xmlns="http://www.w3.org/2000/svg">
<circle cx="10" cy="10" r="10" fill="#C4C4C4" fill-opacity="0.5"/>
<path d="M7.35116 7.4107V13.3036C7.35134 13.3632 7.3678 13.4217 7.39875 13.4727C7.4297 13.5237 7.47398 13.5653 7.52681 13.593C7.57965 13.6207 7.63904 13.6335 7.6986 13.63C7.75816 13.6265 7.81563 13.6068 7.86482 13.573L12.1208 10.6266C12.2972 10.5044 12.2972 10.2105 12.1208 10.088L7.86482 7.14159C7.81573 7.10749 7.75823 7.08749 7.69857 7.08376C7.63892 7.08004 7.57938 7.09274 7.52643 7.12048C7.47349 7.14822 7.42915 7.18994 7.39825 7.2411C7.36735 7.29227 7.35106 7.35093 7.35116 7.4107Z" fill="white"/>
</svg>
